<?xml version="1.0" encoding="utf-8"?>
<!-- Generator: Adobe Illustrator 21.0.0, SVG Export Plug-In . SVG Version: 6.00 Build 0)  -->
<svg version="1.1" id="图层_1" xmlns="http://www.w3.org/2000/svg" xmlns:xlink="http://www.w3.org/1999/xlink" x="0px" y="0px"
	 viewBox="0 0 90 90" style="enable-background:new 0 0 90 90;" xml:space="preserve">
<style type="text/css">
	.st0{fill:#E5E5E4;}
	.st1{clip-path:url(#SVGID_2_);}
	.st2{fill:#FFFFFF;}
	.st3{fill:#B5B5B5;}
	.st4{clip-path:url(#SVGID_4_);}
</style>
<g id="图层_1_1_">
	<rect class="st0" width="90" height="90"/>
</g>
<g id="图层_2">
	<g>
		<g>
			<defs>
				<polygon id="SVGID_1_" points="9.8,9.5 9.8,75.5 19.4,69.5 30.2,55 45.6,53 50.4,36.8 75.2,29.5 75.2,9.5 				"/>
			</defs>
			<clipPath id="SVGID_2_">
				<use xlink:href="#SVGID_1_"  style="overflow:visible;"/>
			</clipPath>
			<g class="st1">
				<g>
					<path class="st2" d="M17.7,66.5c-0.6,0-1-0.4-1-1v-50c0-0.6,0.4-1,1-1h50c0.6,0,1,0.4,1,1v42c0,0.4-0.2,0.8-0.6,0.9
						c-0.1,0-0.2,0.1-0.4,0.1c-0.3,0-0.5-0.1-0.7-0.3L50.6,40.9l-6.3,6.3c-0.2,0.2-0.4,0.3-0.7,0.3c0,0,0,0,0,0
						c-0.3,0-0.5-0.1-0.7-0.4L33.6,36l-10,10.9v12.6h34c0.6,0,1,0.4,1,1v5c0,0.6-0.4,1-1,1C57.7,66.5,17.7,66.5,17.7,66.5z
						 M55.7,22.5c-2.8,0-5,2.2-5,5s2.2,5,5,5c2.8,0,5-2.2,5-5S58.4,22.5,55.7,22.5z"/>
					<path class="st3" d="M67.7,15.5v42l-17-18l-7,7l-10-12l-11,12v14h35v5h-40v-50H67.7 M55.7,33.5c3.3,0,6-2.7,6-6s-2.7-6-6-6
						c-3.3,0-6,2.7-6,6S52.4,33.5,55.7,33.5 M67.7,13.5h-50c-1.1,0-2,0.9-2,2v50c0,1.1,0.9,2,2,2h40c1.1,0,2-0.9,2-2v-5
						c0-1.1-0.9-2-2-2h-33V47.3l8.9-9.7l8.5,10.2c0.4,0.4,0.9,0.7,1.4,0.7c0,0,0.1,0,0.1,0c0.5,0,1-0.2,1.4-0.6l5.5-5.5l15.6,16.5
						c0.4,0.4,0.9,0.6,1.5,0.6c0.2,0,0.5,0,0.7-0.1c0.8-0.3,1.3-1,1.3-1.9v-42C69.7,14.4,68.8,13.5,67.7,13.5L67.7,13.5z M55.7,31.5
						c-2.2,0-4-1.8-4-4s1.8-4,4-4c2.2,0,4,1.8,4,4S57.9,31.5,55.7,31.5L55.7,31.5z"/>
				</g>
			</g>
		</g>
	</g>
	<g>
		<g>
			<defs>
				<polygon id="SVGID_3_" points="80.2,80.5 14.8,80.5 24.4,74.5 35.2,60 50.6,58 55.4,41.8 80.2,34.5 80.2,54.5 				"/>
			</defs>
			<clipPath id="SVGID_4_">
				<use xlink:href="#SVGID_3_"  style="overflow:visible;"/>
			</clipPath>
			<g class="st4">
				<g>
					<path class="st2" d="M22.7,71.5c-0.6,0-1-0.4-1-1v-50c0-0.6,0.4-1,1-1h50c0.6,0,1,0.4,1,1v42c0,0.4-0.2,0.8-0.6,0.9
						c-0.1,0-0.2,0.1-0.4,0.1c-0.3,0-0.5-0.1-0.7-0.3L55.6,45.9l-6.3,6.3c-0.2,0.2-0.4,0.3-0.7,0.3c0,0,0,0,0,0
						c-0.3,0-0.5-0.1-0.7-0.4L38.6,41l-10,10.9v12.6h34c0.6,0,1,0.4,1,1v5c0,0.6-0.4,1-1,1C62.7,71.5,22.7,71.5,22.7,71.5z
						 M60.7,27.5c-2.8,0-5,2.2-5,5s2.2,5,5,5c2.8,0,5-2.2,5-5S63.4,27.5,60.7,27.5z"/>
					<path class="st3" d="M72.7,20.5v42l-17-18l-7,7l-10-12l-11,12v14h35v5h-40v-50L72.7,20.5 M60.7,38.5c3.3,0,6-2.7,6-6
						s-2.7-6-6-6c-3.3,0-6,2.7-6,6S57.4,38.5,60.7,38.5 M72.7,18.5h-50c-1.1,0-2,0.9-2,2v50c0,1.1,0.9,2,2,2h40c1.1,0,2-0.9,2-2v-5
						c0-1.1-0.9-2-2-2h-33V52.3l8.9-9.7l8.5,10.2c0.4,0.4,0.9,0.7,1.4,0.7c0,0,0.1,0,0.1,0c0.5,0,1-0.2,1.4-0.6l5.5-5.5l15.6,16.5
						c0.4,0.4,0.9,0.6,1.5,0.6c0.2,0,0.5,0,0.7-0.1c0.8-0.3,1.3-1,1.3-1.9v-42C74.7,19.4,73.8,18.5,72.7,18.5L72.7,18.5z M60.7,36.5
						c-2.2,0-4-1.8-4-4s1.8-4,4-4c2.2,0,4,1.8,4,4S62.9,36.5,60.7,36.5L60.7,36.5z"/>
				</g>
			</g>
		</g>
	</g>
</g>
</svg>
